<svg width="318" height="38" viewBox="0 0 318 38" fill="none" xmlns="http://www.w3.org/2000/svg">
<path d="M65.616 37C64.944 37 64.32 36.84 63.744 36.52C63.168 36.168 62.88 35.656 62.88 34.984V3.87999C62.88 3.17599 63.2 2.67999 63.84 2.39199C64.512 2.07199 65.232 1.91199 66 1.91199C66.8 1.91199 67.52 2.07199 68.16 2.39199C68.8 2.67999 69.12 3.17599 69.12 3.87999V31.528H80.88C81.52 31.528 81.984 31.816 82.272 32.392C82.56 32.936 82.704 33.56 82.704 34.264C82.704 34.936 82.56 35.56 82.272 36.136C81.984 36.712 81.52 37 80.88 37H65.616Z" fill="#1F1F1F"/>
<path d="M94.9834 37.432C93.0634 37.432 91.3034 36.984 89.7034 36.088C88.1354 35.16 86.8714 33.96 85.9114 32.488C84.9834 30.984 84.5194 29.384 84.5194 27.688V16.168C84.5194 15.688 84.8234 15.24 85.4314 14.824C86.0714 14.408 86.8074 14.2 87.6394 14.2C88.4714 14.2 89.1914 14.408 89.7994 14.824C90.4074 15.24 90.7114 15.688 90.7114 16.168V27.688C90.7114 28.424 90.9034 29.112 91.2874 29.752C91.6714 30.392 92.1834 30.936 92.8234 31.384C93.4634 31.8 94.1674 32.008 94.9354 32.008C95.7354 32.008 96.4394 31.8 97.0474 31.384C97.6874 30.968 98.1994 30.424 98.5834 29.752C98.9674 29.08 99.1594 28.392 99.1594 27.688V16.12C99.1594 15.608 99.4634 15.16 100.071 14.776C100.711 14.392 101.431 14.2 102.231 14.2C103.159 14.2 103.911 14.392 104.487 14.776C105.063 15.16 105.351 15.608 105.351 16.12V27.688C105.351 29.416 104.871 31.032 103.911 32.536C102.983 34.008 101.719 35.192 100.119 36.088C98.5514 36.984 96.8394 37.432 94.9834 37.432Z" fill="#1F1F1F"/>
<path d="M119.579 37.432C117.147 37.432 115.163 37 113.627 36.136C112.091 35.272 110.955 34.104 110.219 32.632C109.483 31.128 109.115 29.448 109.115 27.592V23.752C109.115 21.896 109.467 20.232 110.171 18.76C110.907 17.256 112.043 16.072 113.579 15.208C115.147 14.344 117.115 13.912 119.483 13.912C120.987 13.912 122.315 14.088 123.467 14.44C124.619 14.792 125.531 15.256 126.203 15.832C126.875 16.408 127.211 17.016 127.211 17.656C127.211 18.04 127.099 18.472 126.875 18.952C126.683 19.4 126.395 19.8 126.011 20.152C125.659 20.504 125.243 20.68 124.763 20.68C124.411 20.68 124.043 20.568 123.659 20.344C123.307 20.12 122.843 19.896 122.267 19.672C121.691 19.448 120.923 19.336 119.963 19.336C118.331 19.336 117.147 19.736 116.411 20.536C115.675 21.304 115.307 22.376 115.307 23.752V27.592C115.307 28.968 115.675 30.056 116.411 30.856C117.147 31.624 118.347 32.008 120.011 32.008C121.003 32.008 121.771 31.88 122.315 31.624C122.859 31.368 123.307 31.128 123.659 30.904C124.043 30.68 124.427 30.568 124.811 30.568C125.387 30.568 125.867 30.728 126.251 31.048C126.667 31.368 126.971 31.768 127.163 32.248C127.387 32.696 127.499 33.112 127.499 33.496C127.499 34.136 127.147 34.76 126.443 35.368C125.771 35.976 124.827 36.472 123.611 36.856C122.427 37.24 121.083 37.432 119.579 37.432Z" fill="#1F1F1F"/>
<path d="M135.593 37.432C133.897 37.432 132.425 36.92 131.177 35.896C129.961 34.84 129.353 33.224 129.353 31.048C129.353 29.224 129.817 27.8 130.745 26.776C131.705 25.752 133.017 25.032 134.681 24.616C136.377 24.2 138.329 23.992 140.537 23.992H142.505V23.368C142.505 22.664 142.361 21.976 142.073 21.304C141.817 20.632 141.385 20.072 140.777 19.624C140.201 19.176 139.369 18.952 138.281 18.952C137.065 18.952 136.121 19.08 135.449 19.336C134.809 19.56 134.313 19.8 133.961 20.056C133.609 20.312 133.225 20.44 132.809 20.44C132.137 20.44 131.609 20.104 131.225 19.432C130.873 18.76 130.697 18.072 130.697 17.368C130.697 16.696 131.097 16.104 131.897 15.592C132.729 15.048 133.737 14.632 134.921 14.344C136.105 14.056 137.257 13.912 138.377 13.912C140.873 13.912 142.873 14.36 144.377 15.256C145.881 16.152 146.969 17.304 147.641 18.712C148.345 20.12 148.697 21.64 148.697 23.272V34.984C148.697 35.56 148.409 36.04 147.833 36.424C147.257 36.808 146.537 37 145.673 37C144.873 37 144.201 36.808 143.657 36.424C143.145 36.04 142.889 35.56 142.889 34.984V33.64C142.025 34.632 141.001 35.512 139.817 36.28C138.665 37.048 137.257 37.432 135.593 37.432ZM138.089 32.824C138.761 32.824 139.433 32.6 140.105 32.152C140.777 31.704 141.337 31.128 141.785 30.424C142.265 29.72 142.505 28.984 142.505 28.216V27.208H141.785C140.729 27.208 139.721 27.272 138.761 27.4C137.801 27.528 137.017 27.816 136.409 28.264C135.833 28.68 135.545 29.336 135.545 30.232C135.545 31.128 135.785 31.784 136.265 32.2C136.777 32.616 137.385 32.824 138.089 32.824Z" fill="#1F1F1F"/>
<path d="M160.731 37.432C159.131 37.432 157.659 37.24 156.315 36.856C155.003 36.44 153.963 35.912 153.195 35.272C152.459 34.632 152.091 33.976 152.091 33.304C152.091 32.952 152.171 32.568 152.331 32.152C152.523 31.736 152.763 31.368 153.051 31.048C153.371 30.728 153.739 30.568 154.155 30.568C154.603 30.568 155.067 30.76 155.547 31.144C156.059 31.496 156.683 31.848 157.419 32.2C158.187 32.552 159.243 32.728 160.587 32.728C162.027 32.728 162.971 32.504 163.419 32.056C163.899 31.608 164.139 31.144 164.139 30.664C164.139 29.96 163.851 29.416 163.275 29.032C162.731 28.648 162.027 28.344 161.163 28.12C160.299 27.864 159.371 27.592 158.379 27.304C157.419 27.016 156.507 26.648 155.643 26.2C154.779 25.72 154.075 25.08 153.531 24.28C152.987 23.448 152.715 22.376 152.715 21.064C152.715 19.912 152.987 18.792 153.531 17.704C154.075 16.616 154.971 15.72 156.219 15.016C157.467 14.28 159.163 13.912 161.307 13.912C162.619 13.912 163.851 14.056 165.003 14.344C166.187 14.6 167.147 14.968 167.883 15.448C168.619 15.928 168.987 16.456 168.987 17.032C168.987 17.32 168.891 17.704 168.699 18.184C168.507 18.632 168.235 19.048 167.883 19.432C167.563 19.816 167.163 20.008 166.683 20.008C166.331 20.008 165.899 19.896 165.387 19.672C164.907 19.416 164.347 19.176 163.707 18.952C163.067 18.728 162.299 18.616 161.403 18.616C160.603 18.616 159.963 18.728 159.483 18.952C159.003 19.176 158.651 19.448 158.427 19.768C158.203 20.088 158.091 20.424 158.091 20.776C158.091 21.352 158.363 21.8 158.907 22.12C159.451 22.44 160.155 22.712 161.019 22.936C161.915 23.16 162.843 23.416 163.803 23.704C164.795 23.96 165.723 24.344 166.587 24.856C167.483 25.368 168.203 26.072 168.747 26.968C169.291 27.832 169.563 28.968 169.563 30.376C169.563 32.52 168.795 34.232 167.259 35.512C165.755 36.792 163.579 37.432 160.731 37.432Z" fill="#1F1F1F"/>
<path d="M202.644 37.24C202.228 37.24 201.812 37.112 201.396 36.856C201.012 36.6 200.708 36.232 200.484 35.752L193.668 22.504H189.636V34.984C189.636 35.656 189.316 36.168 188.676 36.52C188.036 36.84 187.316 37 186.516 37C185.748 37 185.028 36.84 184.356 36.52C183.716 36.168 183.396 35.656 183.396 34.984V3.87999C183.396 3.33599 183.572 2.87199 183.924 2.48799C184.308 2.10399 184.804 1.91199 185.412 1.91199H194.916C197.028 1.91199 198.932 2.21599 200.628 2.82399C202.356 3.43199 203.732 4.47199 204.756 5.94399C205.78 7.38399 206.292 9.38399 206.292 11.944C206.292 13.8 206.02 15.384 205.476 16.696C204.932 17.976 204.18 19.016 203.22 19.816C202.292 20.584 201.22 21.16 200.004 21.544L206.34 33.208C206.404 33.336 206.452 33.48 206.484 33.64C206.516 33.768 206.532 33.88 206.532 33.976C206.532 34.488 206.34 35 205.956 35.512C205.572 36.024 205.076 36.44 204.468 36.76C203.892 37.08 203.284 37.24 202.644 37.24ZM189.636 17.608H194.916C196.484 17.608 197.732 17.224 198.66 16.456C199.588 15.688 200.052 14.376 200.052 12.52C200.052 10.6 199.588 9.27199 198.66 8.53599C197.732 7.76799 196.484 7.38399 194.916 7.38399H189.636V17.608Z" fill="#1F1F1F"/>
<path d="M213.269 9.11199C212.341 9.11199 211.541 8.80799 210.869 8.19999C210.197 7.55999 209.861 6.85599 209.861 6.08799C209.861 5.25599 210.197 4.55199 210.869 3.97599C211.541 3.36799 212.341 3.06399 213.269 3.06399C214.229 3.06399 215.029 3.36799 215.669 3.97599C216.309 4.55199 216.629 5.25599 216.629 6.08799C216.629 6.85599 216.309 7.55999 215.669 8.19999C215.029 8.80799 214.229 9.11199 213.269 9.11199ZM213.269 37C212.373 37 211.637 36.792 211.061 36.376C210.485 35.96 210.197 35.496 210.197 34.984V16.12C210.197 15.544 210.485 15.08 211.061 14.728C211.637 14.376 212.373 14.2 213.269 14.2C214.133 14.2 214.869 14.376 215.477 14.728C216.085 15.08 216.389 15.544 216.389 16.12V34.984C216.389 35.496 216.085 35.96 215.477 36.376C214.869 36.792 214.133 37 213.269 37Z" fill="#1F1F1F"/>
<path d="M233.647 37.432C232.143 37.432 230.783 37.048 229.567 36.28C228.351 35.512 227.487 34.632 226.975 33.64V34.984C226.975 35.496 226.703 35.96 226.159 36.376C225.647 36.792 224.991 37 224.191 37C223.327 37 222.607 36.792 222.031 36.376C221.455 35.96 221.167 35.496 221.167 34.984V2.82399C221.167 2.24799 221.455 1.78399 222.031 1.43199C222.607 1.07999 223.327 0.903992 224.191 0.903992C225.087 0.903992 225.839 1.07999 226.447 1.43199C227.055 1.78399 227.359 2.24799 227.359 2.82399V17.56C227.871 16.632 228.655 15.8 229.711 15.064C230.767 14.296 232.047 13.912 233.551 13.912C235.119 13.912 236.543 14.36 237.823 15.256C239.103 16.12 240.127 17.288 240.895 18.76C241.663 20.232 242.047 21.864 242.047 23.656V27.592C242.047 29.288 241.663 30.888 240.895 32.392C240.127 33.896 239.103 35.112 237.823 36.04C236.575 36.968 235.183 37.432 233.647 37.432ZM231.679 32.008C232.447 32.008 233.151 31.8 233.791 31.384C234.431 30.936 234.927 30.376 235.279 29.704C235.663 29.032 235.855 28.328 235.855 27.592V23.656C235.855 22.92 235.663 22.232 235.279 21.592C234.927 20.952 234.431 20.424 233.791 20.008C233.151 19.56 232.431 19.336 231.631 19.336C230.959 19.336 230.287 19.512 229.615 19.864C228.975 20.216 228.431 20.712 227.983 21.352C227.567 21.992 227.359 22.76 227.359 23.656V28.456C227.359 28.776 227.551 29.224 227.935 29.8C228.319 30.344 228.831 30.856 229.471 31.336C230.143 31.784 230.879 32.008 231.679 32.008Z" fill="#1F1F1F"/>
<path d="M256.761 37.432C254.489 37.432 252.473 37.032 250.713 36.232C248.985 35.4 247.625 34.248 246.633 32.776C245.641 31.272 245.145 29.544 245.145 27.592V23.512C245.145 21.784 245.609 20.2 246.537 18.76C247.497 17.288 248.761 16.12 250.329 15.256C251.929 14.36 253.705 13.912 255.657 13.912C257.449 13.912 259.081 14.296 260.553 15.064C262.057 15.832 263.273 16.888 264.201 18.232C265.129 19.576 265.593 21.144 265.593 22.936C265.593 24.312 265.369 25.304 264.921 25.912C264.473 26.488 263.897 26.856 263.193 27.016C262.521 27.144 261.817 27.208 261.081 27.208H251.337V27.928C251.337 29.304 251.849 30.424 252.873 31.288C253.929 32.12 255.289 32.536 256.953 32.536C258.009 32.536 258.889 32.376 259.593 32.056C260.297 31.736 260.905 31.432 261.417 31.144C261.929 30.856 262.409 30.712 262.857 30.712C263.337 30.712 263.753 30.872 264.105 31.192C264.457 31.512 264.729 31.896 264.921 32.344C265.113 32.76 265.209 33.128 265.209 33.448C265.209 33.992 264.857 34.584 264.153 35.224C263.481 35.832 262.505 36.36 261.225 36.808C259.977 37.224 258.489 37.432 256.761 37.432ZM251.337 23.56H258.345C258.889 23.56 259.257 23.48 259.449 23.32C259.673 23.128 259.785 22.776 259.785 22.264C259.785 21.528 259.577 20.872 259.161 20.296C258.777 19.72 258.265 19.272 257.625 18.952C257.017 18.632 256.329 18.472 255.561 18.472C254.825 18.472 254.137 18.632 253.497 18.952C252.857 19.24 252.329 19.672 251.913 20.248C251.529 20.792 251.337 21.448 251.337 22.216V23.56Z" fill="#1F1F1F"/>
<path d="M272.378 9.11199C271.45 9.11199 270.65 8.80799 269.978 8.19999C269.306 7.55999 268.97 6.85599 268.97 6.08799C268.97 5.25599 269.306 4.55199 269.978 3.97599C270.65 3.36799 271.45 3.06399 272.378 3.06399C273.338 3.06399 274.138 3.36799 274.778 3.97599C275.418 4.55199 275.738 5.25599 275.738 6.08799C275.738 6.85599 275.418 7.55999 274.778 8.19999C274.138 8.80799 273.338 9.11199 272.378 9.11199ZM272.378 37C271.482 37 270.746 36.792 270.17 36.376C269.594 35.96 269.306 35.496 269.306 34.984V16.12C269.306 15.544 269.594 15.08 270.17 14.728C270.746 14.376 271.482 14.2 272.378 14.2C273.242 14.2 273.978 14.376 274.586 14.728C275.194 15.08 275.498 15.544 275.498 16.12V34.984C275.498 35.496 275.194 35.96 274.586 36.376C273.978 36.792 273.242 37 272.378 37Z" fill="#1F1F1F"/>
<path d="M283.252 37C282.388 37 281.668 36.792 281.092 36.376C280.516 35.96 280.228 35.496 280.228 34.984V16.12C280.228 15.544 280.516 15.08 281.092 14.728C281.668 14.376 282.388 14.2 283.252 14.2C284.052 14.2 284.708 14.376 285.22 14.728C285.764 15.08 286.036 15.544 286.036 16.12V18.088C286.388 17.384 286.852 16.728 287.428 16.12C288.036 15.48 288.724 14.952 289.492 14.536C290.26 14.12 291.076 13.912 291.94 13.912H293.428C294.036 13.912 294.564 14.184 295.012 14.728C295.46 15.24 295.684 15.864 295.684 16.6C295.684 17.368 295.46 18.024 295.012 18.568C294.564 19.08 294.036 19.336 293.428 19.336H291.94C291.044 19.336 290.164 19.64 289.3 20.248C288.468 20.824 287.78 21.64 287.236 22.696C286.692 23.72 286.42 24.968 286.42 26.44V34.984C286.42 35.496 286.116 35.96 285.508 36.376C284.9 36.792 284.148 37 283.252 37Z" fill="#1F1F1F"/>
<path d="M307.17 37.432C305.314 37.432 303.602 36.984 302.034 36.088C300.466 35.16 299.202 33.944 298.242 32.44C297.282 30.936 296.802 29.32 296.802 27.592V23.656C296.802 21.928 297.266 20.328 298.194 18.856C299.122 17.352 300.37 16.152 301.938 15.256C303.538 14.36 305.282 13.912 307.17 13.912C309.058 13.912 310.786 14.36 312.354 15.256C313.954 16.12 315.218 17.288 316.146 18.76C317.106 20.232 317.586 21.864 317.586 23.656V27.592C317.586 29.288 317.106 30.888 316.146 32.392C315.186 33.896 313.906 35.112 312.306 36.04C310.738 36.968 309.026 37.432 307.17 37.432ZM307.17 32.008C307.938 32.008 308.642 31.8 309.282 31.384C309.922 30.968 310.434 30.424 310.818 29.752C311.202 29.048 311.394 28.328 311.394 27.592V23.656C311.394 22.92 311.202 22.232 310.818 21.592C310.434 20.952 309.922 20.424 309.282 20.008C308.674 19.56 307.97 19.336 307.17 19.336C306.402 19.336 305.698 19.544 305.058 19.96C304.418 20.376 303.906 20.92 303.522 21.592C303.17 22.232 302.994 22.92 302.994 23.656V27.592C302.994 28.328 303.17 29.048 303.522 29.752C303.906 30.424 304.418 30.968 305.058 31.384C305.698 31.8 306.402 32.008 307.17 32.008Z" fill="#1F1F1F"/>
<path d="M15.3333 33.6229L0.0833359 18.3729L15.4604 2.99583L18.1927 5.72812L5.54792 18.3729L18.0656 30.8906L15.3333 33.6229ZM35.5396 33.75L32.8073 31.0177L45.4521 18.3729L32.9344 5.8552L35.6667 3.12291L50.9167 18.3729L35.5396 33.75Z" fill="#0DE062"/>
</svg>
